<svg xmlns="http://www.w3.org/2000/svg">
 <symbol id="logout" viewBox="0 0 24 18">
    <path fill-rule="evenodd" clip-rule="evenodd" d="M1.57376 1.07376C2.10121 0.546316 2.81658 0.25 3.5625 0.25H13.2054C13.9513 0.25 14.6666 0.546316 15.1941 1.07376C15.7215 1.60121 16.0179 2.31658 16.0179 3.0625V5.07143C16.0179 5.51523 15.6581 5.875 15.2143 5.875C14.7705 5.875 14.4107 5.51523 14.4107 5.07143V3.0625C14.4107 2.74282 14.2837 2.43623 14.0577 2.21018C13.8316 1.98414 13.525 1.85714 13.2054 1.85714H3.5625C3.24282 1.85714 2.93623 1.98414 2.71018 2.21018C2.48414 2.43623 2.35714 2.74282 2.35714 3.0625V15.1161C2.35714 15.4358 2.48414 15.7423 2.71018 15.9684C2.93623 16.1944 3.24282 16.3214 3.5625 16.3214H13.2054C13.525 16.3214 13.8316 16.1944 14.0577 15.9684C14.2837 15.7423 14.4107 15.4358 14.4107 15.1161V13.1071C14.4107 12.6633 14.7705 12.3036 15.2143 12.3036C15.6581 12.3036 16.0179 12.6633 16.0179 13.1071V15.1161C16.0179 15.862 15.7215 16.5774 15.1941 17.1048C14.6666 17.6323 13.9513 17.9286 13.2054 17.9286H3.5625C2.81658 17.9286 2.10121 17.6323 1.57376 17.1048C1.04632 16.5774 0.75 15.862 0.75 15.1161V3.0625C0.75 2.31658 1.04632 1.60121 1.57376 1.07376Z" />
    <path fill-rule="evenodd" clip-rule="evenodd" d="M17.8604 4.50322C18.1742 4.1894 18.683 4.1894 18.9968 4.50322L23.0146 8.52108C23.3285 8.83489 23.3285 9.34368 23.0146 9.6575L18.9968 13.6754C18.683 13.9892 18.1742 13.9892 17.8604 13.6754C17.5465 13.3615 17.5465 12.8527 17.8604 12.5389L21.31 9.08929L17.8604 5.63964C17.5465 5.32583 17.5465 4.81703 17.8604 4.50322Z" />
    <path fill-rule="evenodd" clip-rule="evenodd" d="M7.93192 9.08929C7.93192 8.64549 8.29169 8.28572 8.73549 8.28572H22.4464C22.8902 8.28572 23.25 8.64549 23.25 9.08929C23.25 9.53309 22.8902 9.89286 22.4464 9.89286H8.73549C8.29169 9.89286 7.93192 9.53309 7.93192 9.08929Z" />
  </symbol>
  <symbol id="delete" viewBox="0 0 14 15">
    <path d="M1.75 3.99996H2.91667M2.91667 3.99996H12.25M2.91667 3.99996V12.1666C2.91667 12.476 3.03958 12.7728 3.25838 12.9916C3.47717 13.2104 3.77391 13.3333 4.08333 13.3333H9.91667C10.2261 13.3333 10.5228 13.2104 10.7416 12.9916C10.9604 12.7728 11.0833 12.476 11.0833 12.1666V3.99996H2.91667ZM4.66667 3.99996V2.83329C4.66667 2.52387 4.78958 2.22713 5.00838 2.00833C5.22717 1.78954 5.52391 1.66663 5.83333 1.66663H8.16667C8.47609 1.66663 8.77283 1.78954 8.99162 2.00833C9.21042 2.22713 9.33333 2.52387 9.33333 2.83329V3.99996M5.83333 6.91663V10.4166M8.16667 6.91663V10.4166" fill="none" stroke-linecap="round" stroke-linejoin="round"/>
  </symbol>
  <symbol id="edit" viewBox="0 0 20 20">
    <path d="M18.8167 4.62222L15.5556 1.34445C15.3401 1.13004 15.0485 1.00968 14.7445 1.00968C14.4405 1.00968 14.1489 1.13004 13.9334 1.34445L2.37225 12.8889L1.3167 17.4444C1.28029 17.611 1.28153 17.7835 1.32035 17.9495C1.35917 18.1155 1.43458 18.2707 1.54107 18.4038C1.64756 18.537 1.78243 18.6446 1.93585 18.7189C2.08927 18.7932 2.25735 18.8323 2.42781 18.8333C2.50724 18.8414 2.58727 18.8414 2.6667 18.8333L7.27225 17.7778L18.8167 6.24445C19.0311 6.02895 19.1515 5.73732 19.1515 5.43333C19.1515 5.12934 19.0311 4.83772 18.8167 4.62222ZM6.7167 16.7778L2.40003 17.6833L3.38337 13.45L12.0334 4.83333L15.3667 8.16667L6.7167 16.7778ZM16.1111 7.36111L12.7778 4.02778L14.7111 2.10556L17.9889 5.43889L16.1111 7.36111Z" fill="white"/>
  </symbol>
   <symbol id="close" viewBox="0 0 13 14">
    <path d="M1.97964 1.02504C1.82839 0.878959 1.62583 0.79813 1.41556 0.799957C1.2053 0.801784 1.00417 0.886122 0.855486 1.03481C0.706803 1.18349 0.622465 1.38462 0.620638 1.59488C0.618811 1.80515 0.69964 2.00771 0.845717 2.15896L5.47683 6.79007L0.844916 11.4212C0.768324 11.4952 0.707231 11.5837 0.665203 11.6815C0.623175 11.7793 0.601053 11.8846 0.600128 11.991C0.599203 12.0975 0.619493 12.2031 0.659814 12.3017C0.700135 12.4002 0.759681 12.4898 0.834976 12.565C0.910271 12.6403 0.999807 12.6999 1.09836 12.7402C1.19691 12.7805 1.30251 12.8008 1.40899 12.7999C1.51547 12.799 1.6207 12.7768 1.71854 12.7348C1.81637 12.6928 1.90486 12.6317 1.97884 12.5551L6.61075 7.92399L11.2419 12.5551C11.3931 12.7012 11.5957 12.782 11.8059 12.7802C12.0162 12.7784 12.2173 12.694 12.366 12.5453C12.5147 12.3967 12.599 12.1955 12.6009 11.9853C12.6027 11.775 12.5219 11.5724 12.3758 11.4212L7.74467 6.79007L12.3758 2.15896C12.5219 2.00771 12.6027 1.80515 12.6009 1.59488C12.599 1.38462 12.5147 1.18349 12.366 1.03481C12.2173 0.886122 12.0162 0.801784 11.8059 0.799957C11.5957 0.79813 11.3931 0.878959 11.2419 1.02504L6.61075 5.65615L1.97964 1.02423V1.02504Z" fill="#727272"/>
  </symbol>
  <symbol id="eye-open" viewBox="0 0 19 11">
    <path d="M9.58328 10C12.9074 10 15.7983 8.14667 17.2791 5.41667C16.5284 4.03008 15.417 2.87215 14.0623 2.06535C12.7076 1.25855 11.16 0.832868 9.58328 0.833334C8.00654 0.832868 6.45898 1.25855 5.10428 2.06535C3.74959 2.87215 2.63812 4.03008 1.88745 5.41667C2.63812 6.80325 3.74959 7.96118 5.10428 8.76798C6.45898 9.57479 8.00654 10.0005 9.58328 10ZM9.58328 5.35049e-07C11.3861 -0.000601787 13.1526 0.507347 14.6797 1.4655C16.2069 2.42365 17.4328 3.79314 18.2166 5.41667C17.4328 7.04019 16.2069 8.40968 14.6797 9.36784C13.1526 10.326 11.3861 10.8339 9.58328 10.8333C7.78044 10.8339 6.01399 10.326 4.48685 9.36784C2.9597 8.40968 1.73379 7.04019 0.949951 5.41667C1.73379 3.79314 2.9597 2.42365 4.48685 1.4655C6.01399 0.507347 7.78044 -0.000601787 9.58328 5.35049e-07ZM9.58328 1.66667C10.5778 1.66667 11.5317 2.06176 12.2349 2.76502C12.9382 3.46828 13.3333 4.42211 13.3333 5.41667C13.3333 6.41123 12.9382 7.36506 12.2349 8.06832C11.5317 8.77158 10.5778 9.16667 9.58328 9.16667C8.58872 9.16667 7.6349 8.77158 6.93163 8.06832C6.22837 7.36506 5.83328 6.41123 5.83328 5.41667C5.83328 4.42211 6.22837 3.46828 6.93163 2.76502C7.6349 2.06176 8.58872 1.66667 9.58328 1.66667ZM9.58328 2.5C8.80974 2.5 8.06787 2.80729 7.52089 3.35427C6.97391 3.90125 6.66662 4.64312 6.66662 5.41667C6.66662 6.19022 6.97391 6.93208 7.52089 7.47906C8.06787 8.02604 8.80974 8.33333 9.58328 8.33333C10.3568 8.33333 11.0987 8.02604 11.6457 7.47906C12.1927 6.93208 12.4999 6.19022 12.4999 5.41667C12.4999 4.64312 12.1927 3.90125 11.6457 3.35427C11.0987 2.80729 10.3568 2.5 9.58328 2.5Z" fill="#1A73E8"/>
  </symbol>
  <symbol id="eye-close" viewBox="0 0 19 15">
    <path d="M2.11912 0.92251L2.70828 0.333344L16.6666 14.2917L16.0774 14.8808L13.2874 12.0908C12.1483 12.5692 10.8958 12.8333 9.58328 12.8333C7.78044 12.8339 6.01399 12.326 4.48685 11.3678C2.9597 10.4097 1.73379 9.0402 0.949951 7.41668C1.75464 5.75574 3.0199 4.36118 4.59495 3.39918L2.11912 0.92251ZM9.58328 12C10.6608 12 11.6924 11.805 12.6458 11.4492L11.7049 10.5092C10.983 11.0045 10.1105 11.2315 9.23869 11.151C8.36688 11.0705 7.55073 10.6875 6.93169 10.0683C6.31266 9.4492 5.92977 8.63299 5.84939 7.76117C5.76902 6.88935 5.99622 6.01689 6.49162 5.29501L5.20328 4.00668C3.80538 4.81697 2.65782 5.99683 1.88662 7.41668C2.63736 8.80338 3.74895 9.9614 5.10381 10.7682C6.45866 11.575 8.0064 12.0006 9.58328 12ZM17.2791 7.41668C16.5284 6.03009 15.417 4.87216 14.0623 4.06536C12.7076 3.25856 11.16 2.83288 9.58328 2.83334C8.64751 2.8322 7.71762 2.98132 6.82912 3.27501L6.17662 2.62334C7.26476 2.20994 8.41925 1.99869 9.58328 2.00001C11.3861 1.99941 13.1526 2.50736 14.6797 3.46551C16.2069 4.42366 17.4328 5.79315 18.2166 7.41668C17.4567 8.98549 16.285 10.3185 14.8266 11.2733L14.2233 10.67C15.5048 9.86644 16.5573 8.74589 17.2791 7.41668ZM9.58328 3.66668C10.2408 3.66651 10.8868 3.83924 11.4565 4.16753C12.0262 4.49582 12.4996 4.96814 12.8292 5.53711C13.1587 6.10608 13.3329 6.7517 13.3342 7.40923C13.3355 8.06676 13.1639 8.71307 12.8366 9.28334L12.2199 8.66668C12.4787 8.12272 12.5626 7.512 12.4603 6.91841C12.3579 6.32482 12.0743 5.77747 11.6484 5.35155C11.2225 4.92562 10.6751 4.64202 10.0815 4.53968C9.48796 4.43734 8.87724 4.5213 8.33328 4.78001L7.71662 4.16334C8.28449 3.8369 8.92827 3.66561 9.58328 3.66668ZM6.66662 7.41668C6.66649 7.9348 6.80439 8.44361 7.06612 8.89076C7.32785 9.33792 7.70398 9.70728 8.1558 9.96086C8.60763 10.2144 9.11886 10.3431 9.63689 10.3336C10.1549 10.324 10.6611 10.1767 11.1033 9.90668L7.09328 5.89668C6.81339 6.35421 6.66571 6.88033 6.66662 7.41668Z" fill="#1A73E8"/>
  </symbol>
  <symbol id="user" viewBox="0 0 20 20">
    <path fill-rule="evenodd" clip-rule="evenodd" d="M4.11215 12.3096C4.82424 11.6845 5.79005 11.3333 6.7971 11.3333H12.8725C13.8795 11.3333 14.8453 11.6845 15.5574 12.3096C16.2695 12.9347 16.6696 13.7826 16.6696 14.6666V16C16.6696 16.3682 16.3296 16.6666 15.9101 16.6666C15.4907 16.6666 15.1507 16.3682 15.1507 16V14.6666C15.1507 14.1362 14.9107 13.6275 14.4834 13.2524C14.0562 12.8774 13.4767 12.6666 12.8725 12.6666H6.7971C6.19287 12.6666 5.61338 12.8774 5.18613 13.2524C4.75887 13.6275 4.51884 14.1362 4.51884 14.6666V16C4.51884 16.3682 4.17884 16.6666 3.75942 16.6666C3.34 16.6666 3 16.3682 3 16V14.6666C3 13.7826 3.40005 12.9347 4.11215 12.3096Z" fill="#3E383A"/>
    <path fill-rule="evenodd" clip-rule="evenodd" d="M9.83478 4.66665C8.57653 4.66665 7.55652 5.56208 7.55652 6.66665C7.55652 7.77122 8.57653 8.66665 9.83478 8.66665C11.093 8.66665 12.113 7.77122 12.113 6.66665C12.113 5.56208 11.093 4.66665 9.83478 4.66665ZM6.03768 6.66665C6.03768 4.8257 7.7377 3.33331 9.83478 3.33331C11.9319 3.33331 13.6319 4.8257 13.6319 6.66665C13.6319 8.5076 11.9319 9.99998 9.83478 9.99998C7.7377 9.99998 6.03768 8.5076 6.03768 6.66665Z" fill="#3E383A"/>
  </symbol>
  <symbol id="arrow-left" viewBox="0 0 8 14">
    <path d="M7 13L1 7L7 1" fill="none"/>
  </symbol>
   <symbol id="data" viewBox="0 0 20 20">
    <path d="M3.33325 15H16.6666M3.33325 5H16.6666H3.33325ZM3.33325 8.33333H16.6666H3.33325ZM3.33325 11.6667H16.6666H3.33325Z" stroke-width="1.3" stroke-linecap="round" stroke-linejoin="round"/>
  </symbol>
   <symbol id="forecasting" viewBox="0 0 20 20">
    <path fill-rule="evenodd" clip-rule="evenodd" d="M4.49856 3.91598C4.49856 3.59419 4.23769 3.33333 3.9159 3.33333C3.59411 3.33333 3.33325 3.59419 3.33325 3.91598V16.7343C3.33325 17.0561 3.59411 17.317 3.9159 17.317H16.7343C17.056 17.317 17.3169 17.0561 17.3169 16.7343C17.3169 16.4125 17.056 16.1517 16.7343 16.1517H4.49856L4.49856 3.91598Z" fill="#3E383A"/>
    <path d="M6.5 15L6.5 10M9.5 15L9.5 6.00002M12.5 15V12M15.5 15L15.5 8.00002" stroke-width="1.3" stroke-linecap="round" stroke-linejoin="round"/>
  </symbol>
  <symbol id="configure" viewBox="0 0 20 20">
  <path  d="M15.9375 4.0625H4.0625V25.9375H25.9375V9.0625H15.9375V4.0625ZM14.0625 10.9375H5.9375V14.0625H14.0625V10.9375ZM5.9375 9.0625H14.0625V5.9375H5.9375V9.0625ZM15.9375 15.9375H24.0625V19.0625H15.9375V15.9375ZM24.0625 10.9375V14.0625H15.9375V10.9375H24.0625ZM14.0625 15.9375H5.9375V19.0625H14.0625V15.9375ZM15.9375 20.9375H24.0625V24.0625H15.9375V20.9375ZM14.0625 20.9375H5.9375V24.0625H14.0625V20.9375Z" fill="black"/></symbol>
  <symbol id="search" viewBox="0 0 20 20">
    <path d="M17.5 17.5L13.875 13.875M15.8333 9.16667C15.8333 12.8486 12.8486 15.8333 9.16667 15.8333C5.48477 15.8333 2.5 12.8486 2.5 9.16667C2.5 5.48477 5.48477 2.5 9.16667 2.5C12.8486 2.5 15.8333 5.48477 15.8333 9.16667Z" stroke-width="2" stroke-linecap="round" stroke-linejoin="round" fill="transparent"/>
  </symbol>
  <symbol id="search" viewBox="0 0 20 20">
    <path d="M17.5 17.5L13.875 13.875M15.8333 9.16667C15.8333 12.8486 12.8486 15.8333 9.16667 15.8333C5.48477 15.8333 2.5 12.8486 2.5 9.16667C2.5 5.48477 5.48477 2.5 9.16667 2.5C12.8486 2.5 15.8333 5.48477 15.8333 9.16667Z" stroke-width="2" stroke-linecap="round" stroke-linejoin="round" fill="transparent"/>
  </symbol>
  <symbol id="welcome" viewBox="0 0 20 20">
    <path fill-rule="evenodd" clip-rule="evenodd" d="M8.92627 1.2253C8.38475 0.792087 7.61529 0.792088 7.07378 1.2253L1.4565 5.71913C1.10477 6.0005 0.900024 6.42651 0.900024 6.87693V13.3752C0.900024 14.194 1.56386 14.8579 2.38274 14.8579H13.6173C14.4362 14.8579 15.1 14.194 15.1 13.3752V6.87693C15.1 6.42651 14.8953 6.0005 14.5436 5.71913L8.92627 1.2253ZM7.84655 2.19126C7.93628 2.11948 8.06377 2.11948 8.1535 2.19126L13.7708 6.68509C13.8291 6.73171 13.863 6.8023 13.863 6.87693V13.3752C13.863 13.5108 13.753 13.6208 13.6173 13.6208H2.38274C2.24706 13.6208 2.13706 13.5108 2.13706 13.3752V6.87693C2.13706 6.8023 2.17099 6.73171 2.22927 6.68509L7.84655 2.19126ZM4.45678 6.43124C4.11518 6.43124 3.83826 6.70816 3.83826 7.04976C3.83826 7.39136 4.11518 7.66828 4.45678 7.66828H11.3704C11.712 7.66828 11.9889 7.39136 11.9889 7.04976C11.9889 6.70816 11.712 6.43124 11.3704 6.43124H4.45678Z" fill="#1A73E8"/>
  </symbol>
  <symbol id="dots-vertical1" viewBox="0 0 20 20">
    <path d="M10 6C8.89543 6 8 5.10457 8 4C8 2.89543 8.89543 2 10 2C11.1046 2 12 2.89543 12 4C12 5.10457 11.1046 6 10 6Z" fill="#4A5568"/>
    <path d="M10 12C8.89543 12 8 11.1046 8 10C8 8.89543 8.89543 8 10 8C11.1046 8 12 8.89543 12 10C12 11.1046 11.1046 12 10 12Z" fill="#4A5568"/>
    <path d="M10 18C8.89543 18 8 17.1046 8 16C8 14.8954 8.89543 14 10 14C11.1046 14 12 14.8954 12 16C12 17.1046 11.1046 18 10 18Z" fill="#4A5568"/>
  </symbol>
  <symbol id="dots-vertical" viewBox="0 0 24 24">
    <path fill-rule="evenodd" clip-rule="evenodd" d="M10 10h4v4h-4zm0-6h4v4h-4zm0 12h4v4h-4z" fill="#000000"/>
  </symbol>
</svg>